<svg xmlns="http://www.w3.org/2000/svg" viewBox="0 0 512 512" width="100%" height="100%">
  <defs>
    <linearGradient id="shieldGrad" x1="0%" y1="0%" x2="100%" y2="100%">
      <stop offset="0%" stop-color="#0a2540" />
      <stop offset="100%" stop-color="#071b4d" />
    </linearGradient>
    <linearGradient id="accentGrad" x1="0%" y1="0%" x2="100%" y2="100%">
      <stop offset="0%" stop-color="#1a7a3c" />
      <stop offset="100%" stop-color="#24a150" />
    </linearGradient>
    <linearGradient id="goldGrad" x1="0%" y1="0%" x2="100%" y2="100%">
      <stop offset="0%" stop-color="#ffc400" />
      <stop offset="100%" stop-color="#ffab00" />
    </linearGradient>
  </defs>

  <!-- Background Shield -->
  <path d="M256 32 L432 96 V240 C432 352 344 448 256 480 C168 448 80 352 80 240 V96 Z" fill="url(#shieldGrad)" />
  
  <!-- Inner Green Crest -->
  <path d="M256 64 L396 116 V232 C396 324 324 406 256 434 C188 406 116 324 116 232 V116 Z" fill="none" stroke="url(#accentGrad)" stroke-width="16" stroke-linecap="round" />

  <!-- Shield Leaf/Bug Emblem -->
  <path d="M256 140 C310 140 330 200 310 270 C290 340 256 370 256 370 C256 370 222 340 202 270 C182 200 202 140 256 140 Z" fill="url(#accentGrad)" />
  
  <!-- Central Leaf Vein & IQ Accent -->
  <path d="M256 160 V340" stroke="url(#goldGrad)" stroke-width="12" stroke-linecap="round" />
  <circle cx="256" cy="230" r="18" fill="url(#goldGrad)" />
</svg>
